<mxfile host="app.diagrams.net" modified="2022-01-07T01:47:10.213Z" agent="5.0 (Windows NT 10.0; Win64; x64) AppleWebKit/537.36 (KHTML, like Gecko) Chrome/96.0.4664.110 Safari/537.36" etag="XhqUlmOEkH4lmqlyfqv_" version="16.1.0" type="github" pages="3">
  <diagram id="prtHgNgQTEPvFCAcTncT" name="Overall">
    <mxGraphModel dx="1422" dy="762" grid="1" gridSize="10" guides="1" tooltips="1" connect="1" arrows="1" fold="1" page="1" pageScale="1" pageWidth="827" pageHeight="1169" math="0" shadow="0">
      <root>
        <mxCell id="0" />
        <mxCell id="1" parent="0" />
        <mxCell id="hNSP_BH40c6gFtiFYz5u-1" value="Start" style="ellipse" vertex="1" parent="1">
          <mxGeometry x="49" y="68" width="80" height="30" as="geometry" />
        </mxCell>
        <UserObject label="Init" link="data:page/id,Co-ZW7uUkBn5pNxfJ4hH" id="hNSP_BH40c6gFtiFYz5u-2">
          <mxCell style="rounded=1;fillColor=#dae8fc;strokeColor=#6c8ebf;" vertex="1" parent="1">
            <mxGeometry x="179" y="68" width="80" height="30" as="geometry" />
          </mxCell>
        </UserObject>
        <mxCell id="hNSP_BH40c6gFtiFYz5u-3" value="" style="edgeStyle=elbowEdgeStyle;elbow=horizontal;" edge="1" source="hNSP_BH40c6gFtiFYz5u-1" target="hNSP_BH40c6gFtiFYz5u-2" parent="1">
          <mxGeometry relative="1" as="geometry" />
        </mxCell>
        <UserObject label="Build" link="data:page/id,3_ZeLcq0q0hWx8ThDnBo" id="hNSP_BH40c6gFtiFYz5u-4">
          <mxCell style="rounded=1;fillColor=#d5e8d4;strokeColor=#82b366;" vertex="1" parent="1">
            <mxGeometry x="309" y="68" width="80" height="30" as="geometry" />
          </mxCell>
        </UserObject>
        <mxCell id="hNSP_BH40c6gFtiFYz5u-5" value="" style="edgeStyle=elbowEdgeStyle;elbow=horizontal;" edge="1" source="hNSP_BH40c6gFtiFYz5u-2" target="hNSP_BH40c6gFtiFYz5u-4" parent="1">
          <mxGeometry relative="1" as="geometry" />
        </mxCell>
        <mxCell id="hNSP_BH40c6gFtiFYz5u-6" value="PPDM" style="rounded=1;fillColor=#ffe6cc;strokeColor=#d79b00;" vertex="1" parent="1">
          <mxGeometry x="439" y="68" width="80" height="30" as="geometry" />
        </mxCell>
        <mxCell id="hNSP_BH40c6gFtiFYz5u-7" value="" style="edgeStyle=elbowEdgeStyle;elbow=horizontal;" edge="1" source="hNSP_BH40c6gFtiFYz5u-4" target="hNSP_BH40c6gFtiFYz5u-6" parent="1">
          <mxGeometry relative="1" as="geometry" />
        </mxCell>
        <mxCell id="hNSP_BH40c6gFtiFYz5u-8" value="Finalize" style="rounded=1;fillColor=#fff2cc;strokeColor=#d6b656;" vertex="1" parent="1">
          <mxGeometry x="569" y="68" width="80" height="30" as="geometry" />
        </mxCell>
        <mxCell id="hNSP_BH40c6gFtiFYz5u-9" value="" style="edgeStyle=elbowEdgeStyle;elbow=horizontal;" edge="1" source="hNSP_BH40c6gFtiFYz5u-6" target="hNSP_BH40c6gFtiFYz5u-8" parent="1">
          <mxGeometry relative="1" as="geometry" />
        </mxCell>
        <mxCell id="hNSP_BH40c6gFtiFYz5u-10" value="Post" style="rounded=1;fillColor=#f8cecc;strokeColor=#b85450;" vertex="1" parent="1">
          <mxGeometry x="699" y="68" width="80" height="30" as="geometry" />
        </mxCell>
        <mxCell id="hNSP_BH40c6gFtiFYz5u-11" value="" style="edgeStyle=elbowEdgeStyle;elbow=horizontal;" edge="1" source="hNSP_BH40c6gFtiFYz5u-8" target="hNSP_BH40c6gFtiFYz5u-10" parent="1">
          <mxGeometry relative="1" as="geometry" />
        </mxCell>
      </root>
    </mxGraphModel>
  </diagram>
  <diagram id="Co-ZW7uUkBn5pNxfJ4hH" name="Init">
    <mxGraphModel dx="1422" dy="762" grid="1" gridSize="10" guides="1" tooltips="1" connect="1" arrows="1" fold="1" page="1" pageScale="1" pageWidth="850" pageHeight="1100" math="0" shadow="0">
      <root>
        <mxCell id="1AtCbe0ueVkBhFOlCVy_-0" />
        <mxCell id="1AtCbe0ueVkBhFOlCVy_-1" parent="1AtCbe0ueVkBhFOlCVy_-0" />
        <mxCell id="U8sPyFRat0lAjuZkQ6tW-0" value="" style="edgeStyle=orthogonalEdgeStyle;rounded=0;orthogonalLoop=1;jettySize=auto;html=1;" edge="1" parent="1AtCbe0ueVkBhFOlCVy_-1" source="U8sPyFRat0lAjuZkQ6tW-1" target="U8sPyFRat0lAjuZkQ6tW-3">
          <mxGeometry relative="1" as="geometry" />
        </mxCell>
        <mxCell id="U8sPyFRat0lAjuZkQ6tW-1" value="Checkout Git" style="whiteSpace=wrap;html=1;fillColor=#dae8fc;strokeColor=#6c8ebf;rounded=1;" vertex="1" parent="1AtCbe0ueVkBhFOlCVy_-1">
          <mxGeometry x="292" y="163" width="120" height="60" as="geometry" />
        </mxCell>
        <mxCell id="U8sPyFRat0lAjuZkQ6tW-2" value="" style="edgeStyle=orthogonalEdgeStyle;rounded=0;orthogonalLoop=1;jettySize=auto;html=1;" edge="1" parent="1AtCbe0ueVkBhFOlCVy_-1" source="U8sPyFRat0lAjuZkQ6tW-3" target="U8sPyFRat0lAjuZkQ6tW-4">
          <mxGeometry relative="1" as="geometry" />
        </mxCell>
        <mxCell id="U8sPyFRat0lAjuZkQ6tW-3" value="Load Props from config file and&amp;nbsp;additional&lt;br&gt;Properties" style="whiteSpace=wrap;html=1;fillColor=#dae8fc;strokeColor=#6c8ebf;rounded=1;" vertex="1" parent="1AtCbe0ueVkBhFOlCVy_-1">
          <mxGeometry x="292" y="284" width="120" height="60" as="geometry" />
        </mxCell>
        <mxCell id="U8sPyFRat0lAjuZkQ6tW-9" value="" style="edgeStyle=orthogonalEdgeStyle;curved=1;rounded=0;orthogonalLoop=1;jettySize=auto;html=1;" edge="1" parent="1AtCbe0ueVkBhFOlCVy_-1" source="U8sPyFRat0lAjuZkQ6tW-4" target="U8sPyFRat0lAjuZkQ6tW-8">
          <mxGeometry relative="1" as="geometry" />
        </mxCell>
        <mxCell id="U8sPyFRat0lAjuZkQ6tW-4" value="checkout External Sources if need" style="whiteSpace=wrap;html=1;fillColor=#dae8fc;strokeColor=#6c8ebf;rounded=1;" vertex="1" parent="1AtCbe0ueVkBhFOlCVy_-1">
          <mxGeometry x="292" y="407" width="120" height="60" as="geometry" />
        </mxCell>
        <mxCell id="U8sPyFRat0lAjuZkQ6tW-7" value="" style="edgeStyle=orthogonalEdgeStyle;curved=1;rounded=0;orthogonalLoop=1;jettySize=auto;html=1;" edge="1" parent="1AtCbe0ueVkBhFOlCVy_-1" source="U8sPyFRat0lAjuZkQ6tW-5" target="U8sPyFRat0lAjuZkQ6tW-1">
          <mxGeometry relative="1" as="geometry" />
        </mxCell>
        <mxCell id="U8sPyFRat0lAjuZkQ6tW-5" value="Init" style="ellipse;whiteSpace=wrap;html=1;fillColor=#dae8fc;strokeColor=#6c8ebf;rounded=1;" vertex="1" parent="1AtCbe0ueVkBhFOlCVy_-1">
          <mxGeometry x="292" y="42" width="120" height="60" as="geometry" />
        </mxCell>
        <mxCell id="U8sPyFRat0lAjuZkQ6tW-8" value="Return testProps" style="ellipse;whiteSpace=wrap;html=1;fillColor=#dae8fc;strokeColor=#6c8ebf;rounded=1;" vertex="1" parent="1AtCbe0ueVkBhFOlCVy_-1">
          <mxGeometry x="292" y="547" width="120" height="60" as="geometry" />
        </mxCell>
      </root>
    </mxGraphModel>
  </diagram>
  <diagram id="3_ZeLcq0q0hWx8ThDnBo" name="Build">
    <mxGraphModel dx="1422" dy="762" grid="1" gridSize="10" guides="1" tooltips="1" connect="1" arrows="1" fold="1" page="1" pageScale="1" pageWidth="850" pageHeight="1100" math="0" shadow="0">
      <root>
        <mxCell id="GxKD45Jp9Sge4Ej8j20g-0" />
        <mxCell id="GxKD45Jp9Sge4Ej8j20g-1" parent="GxKD45Jp9Sge4Ej8j20g-0" />
        <mxCell id="W5F3OjBSNIYUHxUqa3BP-0" value="N" style="edgeStyle=orthogonalEdgeStyle;curved=1;rounded=0;orthogonalLoop=1;jettySize=auto;html=1;" edge="1" parent="GxKD45Jp9Sge4Ej8j20g-1" source="W5F3OjBSNIYUHxUqa3BP-1" target="W5F3OjBSNIYUHxUqa3BP-3">
          <mxGeometry relative="1" as="geometry" />
        </mxCell>
        <mxCell id="4qBME80PQ1rkQ1So2Tql-5" value="Y" style="edgeStyle=orthogonalEdgeStyle;curved=1;rounded=0;orthogonalLoop=1;jettySize=auto;html=1;exitX=1;exitY=0.5;exitDx=0;exitDy=0;entryX=0;entryY=0.5;entryDx=0;entryDy=0;" edge="1" parent="GxKD45Jp9Sge4Ej8j20g-1" source="W5F3OjBSNIYUHxUqa3BP-1" target="4qBME80PQ1rkQ1So2Tql-0">
          <mxGeometry relative="1" as="geometry" />
        </mxCell>
        <mxCell id="W5F3OjBSNIYUHxUqa3BP-1" value="enable Build in params" style="rhombus;whiteSpace=wrap;html=1;fillColor=#d5e8d4;strokeColor=#82b366;rounded=1;" vertex="1" parent="GxKD45Jp9Sge4Ej8j20g-1">
          <mxGeometry x="57" y="153" width="129" height="80" as="geometry" />
        </mxCell>
        <mxCell id="W5F3OjBSNIYUHxUqa3BP-2" value="N" style="edgeStyle=orthogonalEdgeStyle;curved=1;rounded=0;orthogonalLoop=1;jettySize=auto;html=1;" edge="1" parent="GxKD45Jp9Sge4Ej8j20g-1" source="W5F3OjBSNIYUHxUqa3BP-3" target="W5F3OjBSNIYUHxUqa3BP-4">
          <mxGeometry relative="1" as="geometry" />
        </mxCell>
        <mxCell id="4qBME80PQ1rkQ1So2Tql-6" value="Y" style="edgeStyle=orthogonalEdgeStyle;curved=1;rounded=0;orthogonalLoop=1;jettySize=auto;html=1;exitX=1;exitY=0.5;exitDx=0;exitDy=0;entryX=0;entryY=0.5;entryDx=0;entryDy=0;" edge="1" parent="GxKD45Jp9Sge4Ej8j20g-1" source="W5F3OjBSNIYUHxUqa3BP-3" target="4qBME80PQ1rkQ1So2Tql-0">
          <mxGeometry relative="1" as="geometry" />
        </mxCell>
        <mxCell id="W5F3OjBSNIYUHxUqa3BP-3" value="SOURCE in setupPpdm params" style="rhombus;whiteSpace=wrap;html=1;fillColor=#d5e8d4;strokeColor=#82b366;rounded=1;" vertex="1" parent="GxKD45Jp9Sge4Ej8j20g-1">
          <mxGeometry x="57" y="289" width="129" height="80" as="geometry" />
        </mxCell>
        <mxCell id="4qBME80PQ1rkQ1So2Tql-7" value="Y" style="edgeStyle=orthogonalEdgeStyle;curved=1;rounded=0;orthogonalLoop=1;jettySize=auto;html=1;exitX=1;exitY=0.5;exitDx=0;exitDy=0;entryX=0;entryY=0.5;entryDx=0;entryDy=0;" edge="1" parent="GxKD45Jp9Sge4Ej8j20g-1" source="W5F3OjBSNIYUHxUqa3BP-4" target="4qBME80PQ1rkQ1So2Tql-0">
          <mxGeometry relative="1" as="geometry" />
        </mxCell>
        <mxCell id="4qBME80PQ1rkQ1So2Tql-9" value="" style="edgeStyle=orthogonalEdgeStyle;curved=1;rounded=0;orthogonalLoop=1;jettySize=auto;html=1;" edge="1" parent="GxKD45Jp9Sge4Ej8j20g-1" source="W5F3OjBSNIYUHxUqa3BP-4" target="4qBME80PQ1rkQ1So2Tql-8">
          <mxGeometry relative="1" as="geometry" />
        </mxCell>
        <mxCell id="W5F3OjBSNIYUHxUqa3BP-4" value="ppdm.externals specified in config file or ppdm.build.upgrade is true" style="rhombus;whiteSpace=wrap;html=1;fillColor=#d5e8d4;strokeColor=#82b366;rounded=1;" vertex="1" parent="GxKD45Jp9Sge4Ej8j20g-1">
          <mxGeometry x="57" y="425" width="130" height="90" as="geometry" />
        </mxCell>
        <mxCell id="6Q6RDE2FVXf4KY-MQro--1" value="" style="edgeStyle=orthogonalEdgeStyle;curved=1;rounded=0;orthogonalLoop=1;jettySize=auto;html=1;" edge="1" parent="GxKD45Jp9Sge4Ej8j20g-1" source="4qBME80PQ1rkQ1So2Tql-0" target="6Q6RDE2FVXf4KY-MQro--0">
          <mxGeometry relative="1" as="geometry" />
        </mxCell>
        <mxCell id="4qBME80PQ1rkQ1So2Tql-0" value="Start Build" style="whiteSpace=wrap;html=1;fillColor=#d5e8d4;strokeColor=#82b366;rounded=1;" vertex="1" parent="GxKD45Jp9Sge4Ej8j20g-1">
          <mxGeometry x="275" y="299" width="120" height="60" as="geometry" />
        </mxCell>
        <mxCell id="4qBME80PQ1rkQ1So2Tql-4" value="" style="edgeStyle=orthogonalEdgeStyle;curved=1;rounded=0;orthogonalLoop=1;jettySize=auto;html=1;" edge="1" parent="GxKD45Jp9Sge4Ej8j20g-1" source="4qBME80PQ1rkQ1So2Tql-2" target="W5F3OjBSNIYUHxUqa3BP-1">
          <mxGeometry relative="1" as="geometry" />
        </mxCell>
        <mxCell id="4qBME80PQ1rkQ1So2Tql-2" value="Build" style="ellipse;whiteSpace=wrap;html=1;fillColor=#d5e8d4;strokeColor=#82b366;rounded=1;" vertex="1" parent="GxKD45Jp9Sge4Ej8j20g-1">
          <mxGeometry x="62" y="34" width="120" height="60" as="geometry" />
        </mxCell>
        <mxCell id="4qBME80PQ1rkQ1So2Tql-8" value="Skip Build" style="ellipse;whiteSpace=wrap;html=1;fillColor=#d5e8d4;strokeColor=#82b366;rounded=1;" vertex="1" parent="GxKD45Jp9Sge4Ej8j20g-1">
          <mxGeometry x="62.5" y="569" width="120" height="60" as="geometry" />
        </mxCell>
        <mxCell id="zXlVmCTB0iyhaTaYW7nL-1" value="" style="edgeStyle=orthogonalEdgeStyle;curved=1;rounded=0;orthogonalLoop=1;jettySize=auto;html=1;" edge="1" parent="GxKD45Jp9Sge4Ej8j20g-1" source="6Q6RDE2FVXf4KY-MQro--0" target="zXlVmCTB0iyhaTaYW7nL-0">
          <mxGeometry relative="1" as="geometry" />
        </mxCell>
        <mxCell id="6Q6RDE2FVXf4KY-MQro--0" value="Format the mvn profiles and args" style="whiteSpace=wrap;html=1;fillColor=#d5e8d4;strokeColor=#82b366;rounded=1;" vertex="1" parent="GxKD45Jp9Sge4Ej8j20g-1">
          <mxGeometry x="440" y="299" width="120" height="60" as="geometry" />
        </mxCell>
        <mxCell id="zXlVmCTB0iyhaTaYW7nL-3" value="" style="edgeStyle=orthogonalEdgeStyle;curved=1;rounded=0;orthogonalLoop=1;jettySize=auto;html=1;" edge="1" parent="GxKD45Jp9Sge4Ej8j20g-1" source="zXlVmCTB0iyhaTaYW7nL-0" target="zXlVmCTB0iyhaTaYW7nL-2">
          <mxGeometry relative="1" as="geometry" />
        </mxCell>
        <mxCell id="zXlVmCTB0iyhaTaYW7nL-0" value="execute Maven command to build" style="whiteSpace=wrap;html=1;fillColor=#d5e8d4;strokeColor=#82b366;rounded=1;" vertex="1" parent="GxKD45Jp9Sge4Ej8j20g-1">
          <mxGeometry x="602" y="299" width="120" height="60" as="geometry" />
        </mxCell>
        <mxCell id="zXlVmCTB0iyhaTaYW7nL-2" value="Archive Junit test result if test enabled" style="whiteSpace=wrap;html=1;fillColor=#d5e8d4;strokeColor=#82b366;rounded=1;" vertex="1" parent="GxKD45Jp9Sge4Ej8j20g-1">
          <mxGeometry x="760" y="299" width="120" height="60" as="geometry" />
        </mxCell>
      </root>
    </mxGraphModel>
  </diagram>
</mxfile>
